<?xml version="1.0" encoding="UTF-8" standalone="no"?><svg xmlns="http://www.w3.org/2000/svg" xmlns:xlink="http://www.w3.org/1999/xlink" contentScriptType="application/ecmascript" contentStyleType="text/css" height="399px" preserveAspectRatio="none" style="width:540px;height:399px;" version="1.1" viewBox="0 0 540 399" width="540px" zoomAndPan="magnify"><defs><filter height="300%" id="f6c15ax5t9pvw" width="300%" x="-1" y="-1"><feGaussianBlur result="blurOut" stdDeviation="2.0"/><feColorMatrix in="blurOut" result="blurOut2" type="matrix" values="0 0 0 0 0 0 0 0 0 0 0 0 0 0 0 0 0 0 .4 0"/><feOffset dx="4.0" dy="4.0" in="blurOut2" result="blurOut3"/><feBlend in="SourceGraphic" in2="blurOut3" mode="normal"/></filter></defs><g><rect codeLine="2" fill="#FEFECE" filter="url(#f6c15ax5t9pvw)" height="176.0469" id="SpringApplicationRunListeners" style="stroke: #A80036; stroke-width: 1.5;" width="512" x="9" y="7"/><ellipse cx="165.75" cy="23" fill="#ADD1B2" rx="11" ry="11" style="stroke: #A80036; stroke-width: 1.0;"/><path d="M168.7188,28.6406 Q168.1406,28.9375 167.5,29.0859 Q166.8594,29.2344 166.1563,29.2344 Q163.6563,29.2344 162.3359,27.5859 Q161.0156,25.9375 161.0156,22.8125 Q161.0156,19.6875 162.3359,18.0313 Q163.6563,16.375 166.1563,16.375 Q166.8594,16.375 167.5078,16.5313 Q168.1563,16.6875 168.7188,16.9844 L168.7188,19.7031 Q168.0938,19.125 167.5,18.8516 Q166.9063,18.5781 166.2813,18.5781 Q164.9375,18.5781 164.25,19.6484 Q163.5625,20.7188 163.5625,22.8125 Q163.5625,24.9063 164.25,25.9766 Q164.9375,27.0469 166.2813,27.0469 Q166.9063,27.0469 167.5,26.7734 Q168.0938,26.5 168.7188,25.9219 L168.7188,28.6406 Z "/><text fill="#000000" font-family="sans-serif" font-size="12" lengthAdjust="spacingAndGlyphs" textLength="190" x="186.25" y="27.1543">SpringApplicationRunListeners</text><line style="stroke: #A80036; stroke-width: 1.5;" x1="10" x2="520" y1="39" y2="39"/><text fill="#000000" font-family="sans-serif" font-size="11" lengthAdjust="spacingAndGlyphs" textLength="41" x="15" y="53.2104">Log log</text><text fill="#000000" font-family="sans-serif" font-size="11" lengthAdjust="spacingAndGlyphs" textLength="257" x="15" y="66.0151">List&lt;SpringApplicationRunListener&gt; listeners</text><line style="stroke: #A80036; stroke-width: 1.5;" x1="10" x2="520" y1="72.6094" y2="72.6094"/><ellipse cx="20" cy="83.6094" fill="#84BE84" rx="3" ry="3" style="stroke: #038048; stroke-width: 1.0;"/><text fill="#000000" font-family="sans-serif" font-size="11" lengthAdjust="spacingAndGlyphs" textLength="486" x="29" y="86.8198">SpringApplicationRunListeners(Log log, List&lt;SpringApplicationRunListener&gt; listeners)</text><polygon fill="#4177AF" points="20,92.4141,16,98.4141,24,98.4141" style="stroke: #1963A0; stroke-width: 1.0;"/><text fill="#000000" font-family="sans-serif" font-size="11" lengthAdjust="spacingAndGlyphs" textLength="52" x="29" y="99.6245">starting()</text><polygon fill="#4177AF" points="20,105.2188,16,111.2188,24,111.2188" style="stroke: #1963A0; stroke-width: 1.0;"/><text fill="#000000" font-family="sans-serif" font-size="11" lengthAdjust="spacingAndGlyphs" textLength="349" x="29" y="112.4292">environmentPrepared(ConfigurableEnvironment environment)</text><polygon fill="#4177AF" points="20,118.0234,16,124.0234,24,124.0234" style="stroke: #1963A0; stroke-width: 1.0;"/><text fill="#000000" font-family="sans-serif" font-size="11" lengthAdjust="spacingAndGlyphs" textLength="322" x="29" y="125.2339">contextPrepared(ConfigurableApplicationContext context)</text><polygon fill="#4177AF" points="20,130.8281,16,136.8281,24,136.8281" style="stroke: #1963A0; stroke-width: 1.0;"/><text fill="#000000" font-family="sans-serif" font-size="11" lengthAdjust="spacingAndGlyphs" textLength="311" x="29" y="138.0386">contextLoaded(ConfigurableApplicationContext context)</text><polygon fill="#4177AF" points="20,143.6328,16,149.6328,24,149.6328" style="stroke: #1963A0; stroke-width: 1.0;"/><text fill="#000000" font-family="sans-serif" font-size="11" lengthAdjust="spacingAndGlyphs" textLength="270" x="29" y="150.8433">started(ConfigurableApplicationContext context)</text><polygon fill="#4177AF" points="20,156.4375,16,162.4375,24,162.4375" style="stroke: #1963A0; stroke-width: 1.0;"/><text fill="#000000" font-family="sans-serif" font-size="11" lengthAdjust="spacingAndGlyphs" textLength="272" x="29" y="163.6479">running(ConfigurableApplicationContext context)</text><polygon fill="#4177AF" points="20,169.2422,16,175.2422,24,175.2422" style="stroke: #1963A0; stroke-width: 1.0;"/><text fill="#000000" font-family="sans-serif" font-size="11" lengthAdjust="spacingAndGlyphs" textLength="396" x="29" y="176.4526">failed(Configurab非leApplicationContext context, Throwable exception)</text><rect codeLine="15" fill="#FEFECE" filter="url(#f6c15ax5t9pvw)" height="137.6328" id="SpringApplicationRunListener" style="stroke: #A80036; stroke-width: 1.5;" width="411" x="59.5" y="243"/><ellipse cx="169.25" cy="259" fill="#B4A7E5" rx="11" ry="11" style="stroke: #A80036; stroke-width: 1.0;"/><path d="M165.1719,254.7656 L165.1719,252.6094 L172.5625,252.6094 L172.5625,254.7656 L170.0938,254.7656 L170.0938,262.8438 L172.5625,262.8438 L172.5625,265 L165.1719,265 L165.1719,262.8438 L167.6406,262.8438 L167.6406,254.7656 L165.1719,254.7656 Z "/><text fill="#000000" font-family="sans-serif" font-size="12" font-style="italic" lengthAdjust="spacingAndGlyphs" textLength="183" x="189.75" y="263.1543">SpringApplicationRunListener</text><line style="stroke: #A80036; stroke-width: 1.5;" x1="60.5" x2="469.5" y1="275" y2="275"/><line style="stroke: #A80036; stroke-width: 1.5;" x1="60.5" x2="469.5" y1="283" y2="283"/><ellipse cx="70.5" cy="294" fill="#84BE84" rx="3" ry="3" style="stroke: #038048; stroke-width: 1.0;"/><text fill="#000000" font-family="sans-serif" font-size="11" lengthAdjust="spacingAndGlyphs" textLength="52" x="79.5" y="297.2104">starting()</text><ellipse cx="70.5" cy="306.8047" fill="#84BE84" rx="3" ry="3" style="stroke: #038048; stroke-width: 1.0;"/><text fill="#000000" font-family="sans-serif" font-size="11" lengthAdjust="spacingAndGlyphs" textLength="349" x="79.5" y="310.0151">environmentPrepared(ConfigurableEnvironment environment)</text><ellipse cx="70.5" cy="319.6094" fill="#84BE84" rx="3" ry="3" style="stroke: #038048; stroke-width: 1.0;"/><text fill="#000000" font-family="sans-serif" font-size="11" lengthAdjust="spacingAndGlyphs" textLength="322" x="79.5" y="322.8198">contextPrepared(ConfigurableApplicationContext context)</text><ellipse cx="70.5" cy="332.4141" fill="#84BE84" rx="3" ry="3" style="stroke: #038048; stroke-width: 1.0;"/><text fill="#000000" font-family="sans-serif" font-size="11" lengthAdjust="spacingAndGlyphs" textLength="311" x="79.5" y="335.6245">contextLoaded(ConfigurableApplicationContext context)</text><ellipse cx="70.5" cy="345.2188" fill="#84BE84" rx="3" ry="3" style="stroke: #038048; stroke-width: 1.0;"/><text fill="#000000" font-family="sans-serif" font-size="11" lengthAdjust="spacingAndGlyphs" textLength="270" x="79.5" y="348.4292">started(ConfigurableApplicationContext context)</text><ellipse cx="70.5" cy="358.0234" fill="#84BE84" rx="3" ry="3" style="stroke: #038048; stroke-width: 1.0;"/><text fill="#000000" font-family="sans-serif" font-size="11" lengthAdjust="spacingAndGlyphs" textLength="272" x="79.5" y="361.2339">running(ConfigurableApplicationContext context)</text><ellipse cx="70.5" cy="370.8281" fill="#84BE84" rx="3" ry="3" style="stroke: #038048; stroke-width: 1.0;"/><text fill="#000000" font-family="sans-serif" font-size="11" lengthAdjust="spacingAndGlyphs" textLength="385" x="79.5" y="374.0386">failed(ConfigurableApplicationContext context, Throwable exception)</text><path codeLine="25" d="M265,183.2622 C265,201.2334 265,219.9726 265,237.4123 " fill="none" id="SpringApplicationRunListeners-to-SpringApplicationRunListener" style="stroke: #A80036; stroke-width: 1.0;"/><polygon fill="#A80036" points="265,242.7805,269,233.7805,265,237.7805,261,233.7805,265,242.7805" style="stroke: #A80036; stroke-width: 1.0;"/></g></svg>