<?xml version="1.0" encoding="UTF-8" standalone="no"?><svg xmlns="http://www.w3.org/2000/svg" xmlns:xlink="http://www.w3.org/1999/xlink" contentScriptType="application/ecmascript" contentStyleType="text/css" height="158px" preserveAspectRatio="none" style="width:655px;height:158px;" version="1.1" viewBox="0 0 655 158" width="655px" zoomAndPan="magnify"><defs><filter height="300%" id="f1jo6g0600h2yz" width="300%" x="-1" y="-1"><feGaussianBlur result="blurOut" stdDeviation="2.0"/><feColorMatrix in="blurOut" result="blurOut2" type="matrix" values="0 0 0 0 0 0 0 0 0 0 0 0 0 0 0 0 0 0 .4 0"/><feOffset dx="4.0" dy="4.0" in="blurOut2" result="blurOut3"/><feBlend in="SourceGraphic" in2="blurOut3" mode="normal"/></filter></defs><g><!--MD5=[6bed8280a2a322d6e7cdc4d1cb330107]
class SpringFactoriesLoader--><rect codeLine="1" fill="#FEFECE" filter="url(#f1jo6g0600h2yz)" height="137.6328" id="SpringFactoriesLoader" style="stroke:#A80036;stroke-width:1.5;" width="634" x="7" y="7"/><ellipse cx="251.25" cy="23" fill="#ADD1B2" rx="11" ry="11" style="stroke:#A80036;stroke-width:1.0;"/><path d="M253.5938,18.6719 C252.6563,18.2344 252.0625,18.0938 251.1875,18.0938 C248.5625,18.0938 246.5625,20.1719 246.5625,22.8906 L246.5625,24.0156 C246.5625,26.5938 248.6719,28.4844 251.5625,28.4844 C252.7813,28.4844 253.9375,28.1875 254.6875,27.6406 C255.2656,27.2344 255.5938,26.7813 255.5938,26.3906 C255.5938,25.9375 255.2031,25.5469 254.7344,25.5469 C254.5156,25.5469 254.3125,25.625 254.125,25.8125 C253.6719,26.2969 253.6719,26.2969 253.4844,26.3906 C253.0625,26.6563 252.375,26.7813 251.6094,26.7813 C249.5625,26.7813 248.2656,25.6875 248.2656,23.9844 L248.2656,22.8906 C248.2656,21.1094 249.5156,19.7969 251.25,19.7969 C251.8281,19.7969 252.4375,19.9531 252.9063,20.2031 C253.3906,20.4844 253.5625,20.7031 253.6563,21.1094 C253.7188,21.5156 253.75,21.6406 253.8906,21.7656 C254.0313,21.9063 254.2656,22.0156 254.4844,22.0156 C254.75,22.0156 255.0156,21.875 255.1875,21.6563 C255.2969,21.5 255.3281,21.3125 255.3281,20.8906 L255.3281,19.4688 C255.3281,19.0313 255.3125,18.9063 255.2188,18.75 C255.0625,18.4844 254.7813,18.3438 254.4844,18.3438 C254.1875,18.3438 253.9844,18.4375 253.7656,18.75 L253.5938,18.6719 Z " fill="#000000"/><text fill="#000000" font-family="sans-serif" font-size="12" lengthAdjust="spacing" textLength="137" x="271.75" y="27.1543">SpringFactoriesLoader</text><line style="stroke:#A80036;stroke-width:1.5;" x1="8" x2="640" y1="39" y2="39"/><rect fill="none" height="6" style="stroke:#C82930;stroke-width:1.0;" width="6" x="15" y="47"/><text fill="#000000" font-family="sans-serif" font-size="11" lengthAdjust="spacing" text-decoration="underline" textLength="63" x="27" y="53.2104">logger: Log</text><rect fill="none" height="6" style="stroke:#C82930;stroke-width:1.0;" width="6" x="15" y="59.8047"/><text fill="#000000" font-family="sans-serif" font-size="11" lengthAdjust="spacing" text-decoration="underline" textLength="331" x="27" y="66.0151">cache: Map&lt;ClassLoader, MultiValueMap&lt;String, String&gt;&gt;</text><line style="stroke:#A80036;stroke-width:1.5;" x1="8" x2="640" y1="72.6094" y2="72.6094"/><rect fill="#F24D5C" height="6" style="stroke:#C82930;stroke-width:1.0;" width="6" x="15" y="80.6094"/><text fill="#000000" font-family="sans-serif" font-size="11" lengthAdjust="spacing" text-decoration="underline" textLength="134" x="27" y="86.8198">SpringFactoriesLoader()</text><ellipse cx="18" cy="96.4141" fill="#84BE84" rx="3" ry="3" style="stroke:#038048;stroke-width:1.0;"/><text fill="#000000" font-family="sans-serif" font-size="11" lengthAdjust="spacing" text-decoration="underline" textLength="474" x="27" y="99.6245">loadFactories(Class&lt;T&gt; factoryType, @Nullable ClassLoader classLoader) : List&lt;T&gt;</text><ellipse cx="18" cy="109.2188" fill="#84BE84" rx="3" ry="3" style="stroke:#038048;stroke-width:1.0;"/><text fill="#000000" font-family="sans-serif" font-size="11" lengthAdjust="spacing" text-decoration="underline" textLength="533" x="27" y="112.4292">loadFactoryNames(Class&lt;?&gt; factoryType, @Nullable ClassLoader classLoader) :  List&lt;String&gt;</text><rect fill="#F24D5C" height="6" style="stroke:#C82930;stroke-width:1.0;" width="6" x="15" y="119.0234"/><text fill="#000000" font-family="sans-serif" font-size="11" lengthAdjust="spacing" text-decoration="underline" textLength="483" x="27" y="125.2339">loadSpringFactories(@Nullable ClassLoader classLoader) : Map&lt;String, List&lt;String&gt;&gt;</text><rect fill="#F24D5C" height="6" style="stroke:#C82930;stroke-width:1.0;" width="6" x="15" y="131.8281"/><text fill="#000000" font-family="sans-serif" font-size="11" lengthAdjust="spacing" text-decoration="underline" textLength="608" x="27" y="138.0386">instantiateFactory(String factoryImplementationName, Class&lt;T&gt; factoryType, ClassLoader classLoader) : T</text><!--MD5=[a2d4eeb488c01caa2578759f3cd8c7fc]
@startuml
class SpringFactoriesLoader {
    - {static} logger: Log
    - {static} cache: Map<ClassLoader, MultiValueMap<String, String>>
    
    - {static} SpringFactoriesLoader()
    + {static} loadFactories(Class<T> factoryType, @Nullable ClassLoader classLoader) : List<T>
    + {static} loadFactoryNames(Class<?> factoryType, @Nullable ClassLoader classLoader) :  List<String>
    - {static} loadSpringFactories(@Nullable ClassLoader classLoader) : Map<String, List<String>>
    - {static} instantiateFactory(String factoryImplementationName, Class<T> factoryType, ClassLoader classLoader) : T
}
@enduml

PlantUML version 1.2021.01beta7(Unknown compile time)
(GPL source distribution)
Java Runtime: Java(TM) SE Runtime Environment
JVM: Java HotSpot(TM) 64-Bit Server VM
Default Encoding: UTF-8
Language: en
Country: US
--></g></svg>